<?xml version="1.0" encoding="UTF-8" standalone="no"?>
<svg
   xmlns:dc="http://purl.org/dc/elements/1.1/"
   xmlns:cc="http://creativecommons.org/ns#"
   xmlns:rdf="http://www.w3.org/1999/02/22-rdf-syntax-ns#"
   xmlns:svg="http://www.w3.org/2000/svg"
   xmlns="http://www.w3.org/2000/svg"
   viewBox="0 0 400 155"
   height="155"
   width="400"
   version="1.1"
   id="svg2">
  <metadata
     id="metadata8">
    <rdf:RDF>
      <cc:Work
         rdf:about="">
        <dc:format>image/svg+xml</dc:format>
        <dc:type
           rdf:resource="http://purl.org/dc/dcmitype/StillImage" />
        <dc:title></dc:title>
      </cc:Work>
    </rdf:RDF>
  </metadata>
  <defs
     id="defs6" />
  <path
     id="path3338"
     d="m 7.162747,151.40839 c -2.9483174,-2.15585 -2.9333372,-2.49977 0.3598743,-8.26221 6.3300667,-11.07629 28.0743977,-34.998 41.7345987,-45.913736 7.4395,-5.944828 19.177714,-13.796098 26.084922,-17.447296 10.108419,-5.343374 16.80231,-11.005395 34.310618,-29.021602 20.30518,-20.894233 22.88969,-24.935029 16.02156,-25.049188 -0.86687,-0.01437 -2.8952,-1.219923 -4.50736,-2.678919 -2.69489,-2.438848 -3.08509,-2.211361 -4.83958,2.82159 -1.0496,3.01087 -1.90836,6.464136 -1.90836,7.673923 0,4.420688 -3.56703,11.514496 -5.01435,9.972113 -2.18543,-2.328963 3.98153,-38.3534268 6.87934,-40.1859315 4.02005,-2.54216624 5.80637,-0.7943793 6.38793,6.2501092 0.73975,8.9604973 4.4026,12.6991973 12.44159,12.6991973 3.56252,0 6.98546,0.822197 7.60652,1.827104 0.62107,1.004905 -9.34424,12.397024 -22.14511,25.315822 -17.77168,17.935369 -22.801041,23.961992 -21.272473,25.49056 1.528563,1.528567 1.226363,2.25404 -1.278234,3.068494 -8.334779,2.710396 -12.635709,6.468128 -35.016964,30.59435 -35.708295,38.49232 -48.439652,48.26019 -55.844522,42.84562 z m 40.53275,-37.12516 C 59.457658,101.7834 70.236073,90.065532 71.647532,88.243535 c 2.53814,-3.276363 2.503459,-3.276363 -3.161857,0 -13.090967,7.570794 -49.874791,46.129385 -49.874791,52.281185 0,3.31459 8.429126,-4.29056 29.084613,-26.24149 z M 179.56751,103.69592 c -3.04382,-3.66757 -0.54697,-10.319036 7.27068,-19.368628 19.47303,-22.541738 40.04703,-44.536018 45.11037,-48.224451 3.11645,-2.270193 5.46725,-4.326621 5.22404,-4.569838 -0.24322,-0.243217 -6.87761,1.421744 -14.7431,3.699911 -7.86548,2.278167 -16.13836,4.142122 -18.38419,4.142122 -6.27578,0 -4.85869,2.39907 3.06288,5.185332 3.93041,1.382444 7.45944,3.477026 7.84227,4.654611 0.44308,1.362853 -4.59201,0.274609 -13.85269,-2.994003 -8.00182,-2.824293 -17.24593,-5.13508 -20.54246,-5.13508 -5.81634,0 -16.52135,-6.749855 -16.52135,-10.417243 0,-2.6919 7.79212,-1.703516 16.32419,2.070628 7.46881,3.303812 9.06148,3.440168 17.75379,1.519976 20.43544,-4.514331 50.31787,-13.889818 57.28537,-17.973041 8.94465,-5.24191 14.70993,-5.62589 14.70993,-0.979713 0,3.497352 -6.72031,9.097009 -13.41388,11.177023 -6.01638,1.869587 -31.5763,25.515055 -49.90295,46.165233 -23.6794,26.681559 -25.52857,30.873441 -11.80545,26.761899 9.6752,-2.898761 10.51877,-0.947046 1.38235,3.198212 -8.91425,4.04446 -14.06858,4.37797 -16.7998,1.08705 z m 93.44369,0.43605 c -3.60656,-2.01836 -3.73307,-8.576032 -0.29373,-15.226965 1.43561,-2.776195 2.28197,-5.047617 1.88074,-5.047617 -0.40121,0 -4.84784,1.917189 -9.88138,4.260434 -5.03355,2.343244 -10.36248,4.267961 -11.84208,4.277148 -1.47961,0.0086 -7.05079,2.378523 -12.38045,5.265188 -5.89452,3.192602 -11.5423,5.035522 -14.4184,4.704862 -4.2839,-0.49254 -4.70897,-1.15587 -4.52408,-7.059996 0.35823,-11.438962 12.51931,-20.768638 25.66645,-19.690627 6.47136,0.53064 6.63097,0.703112 6.44066,6.959846 -0.10727,3.528649 0.29371,6.415723 0.89121,6.415723 0.59748,0 6.9939,-3.458143 14.21423,-7.684769 10.84752,-6.349891 15.48487,-10.584764 26.69682,-24.379751 13.82852,-17.01438 33.38569,-36.803728 41.71353,-42.208705 5.89654,-3.827021 11.63206,-2.251975 11.63206,3.194317 0,5.420058 -27.21494,33.963349 -45.02322,47.220783 -13.86976,10.325396 -25.12202,23.445346 -25.12202,29.29185 0,4.609791 4.30408,3.869297 17.85284,-3.07149 C 322.2887,78.148455 327.87004,73.884342 341.78186,56.768065 355.50038,39.889592 375.06647,20.104605 383.36793,14.716741 389.26447,10.88972 395,12.464766 395,17.911058 c 0,5.420058 -27.21496,33.963349 -45.02322,47.220783 -13.86977,10.325396 -25.12203,23.445346 -25.12203,29.29185 0,4.501322 4.5056,3.894634 15.97516,-2.151115 5.49292,-2.895391 10.44099,-4.81051 10.99568,-4.255797 1.41256,1.412552 -3.68002,4.947155 -17.27688,11.991361 -9.22267,4.77804 -12.3841,5.68671 -14.97002,4.30278 -3.97422,-2.12694 -4.24969,-8.479756 -0.66801,-15.405915 1.43562,-2.776195 2.21776,-5.047617 1.73811,-5.047617 -1.44835,0 -20.07841,9.280524 -28.30038,14.097757 -11.18088,6.550875 -15.94787,8.073585 -19.33721,6.176825 z M 244.04108,89.75171 c 4.98307,-5.699866 3.38656,-8.351048 -3.03058,-5.032614 -2.72278,1.408004 -6.1165,2.560011 -7.54159,2.560011 -2.93802,0 -6.78846,6.109855 -5.33377,8.463606 1.60324,2.594124 11.73752,-1.222975 15.90594,-5.991003 z m 85.32139,-52.723517 c 10.91989,-11.788812 12.69191,-14.761753 8.79881,-14.761753 -2.43763,0 -26.91411,24.699926 -35.59003,35.914931 l -5.94569,7.685747 10.92345,-8.541177 c 6.00788,-4.697643 15.82395,-13.831633 21.81346,-20.297748 z m 46.1932,0 c 10.91989,-11.788812 12.69192,-14.761753 8.79883,-14.761753 -2.43764,0 -26.91411,24.699926 -35.59004,35.914931 l -5.94568,7.685747 10.92344,-8.541177 c 6.00789,-4.697643 15.82394,-13.831633 21.81345,-20.297748 z m -265.98518,58.29204 c -1.54844,-1.865761 -1.24849,-3.053713 1.36914,-5.422638 4.29628,-3.888082 9.03524,-2.213664 8.30426,2.934158 -0.64261,4.525377 -6.6915,6.081456 -9.6734,2.48848 z"
     style="fill:#ffffff" />
</svg>
